<svg width="1200" height="76" viewBox="0 0 1200 76" xmlns="http://www.w3.org/2000/svg" font-family="Inter,'Segoe UI',Roboto,'Helvetica Neue',Arial,sans-serif" role="img" aria-label="Milestones: Olympiad gold medalist twice, Code-O-Lympics 1st prize, hackathon winner, Azure certified, Oracle AI certified, 500+ DSA problems" xmlns:c2pa="http://c2pa.org/manifest"><metadata><c2pa:manifest>AAAWgmp1bWIAAAAeanVtZGMycGEAEQAQgAAAqgA4m3EDYzJwYQAAABZcanVtYgAAAEdqdW1kYzJtYQARABCAAACqADibcQN1cm46YzJwYTo4ZGY5YWE4MC1mNmVhLTQwNTYtOWY0My1lNDFiMTBhYmM1ZTgAAAADl2p1bWIAAAApanVtZGMyYXMAEQAQgAAAqgA4m3EDYzJwYS5hc3NlcnRpb25zAAAAALxqdW1iAAAARGp1bWRjYm9yABEAEIAAAKoAOJtxE2MycGEuaW5ncmVkaWVudC52MwAAAAAYYzJzaMjvlxNSOVBURJ4AtsWg/dIAAABwY2JvcqNpZGM6Zm9ybWF0bWltYWdlL3N2Zyt4bWxqaW5zdGFuY2VJRHgseG1wOmlpZDo5YTAxM2YzYS05Y2E4LTQzMGEtYjA2MC1mMmNmNmY4ODhlM2NscmVsYXRpb25zaGlwaHBhcmVudE9mAAAB4mp1bWIAAABBanVtZGNib3IAEQAQgAAAqgA4m3ETYzJwYS5hY3Rpb25zLnYyAAAAABhjMnNoKJaZbeJJSjdtrw7kV508sgAAAZljYm9yomdhY3Rpb25zgqJmYWN0aW9ua2MycGEub3BlbmVkanBhcmFtZXRlcnOha2luZ3JlZGllbnRzgaJjdXJseC1zZWxmI2p1bWJmPWMycGEuYXNzZXJ0aW9ucy9jMnBhLmluZ3JlZGllbnQudjNkaGFzaFggps4OXR2aeyEXv5zpGQg721aqcoot4umslXft48yrmzWkZmFjdGlvbngdY29tLmFudGhyb3BpYy5jbGF1ZGUucHJvdmlkZWRqcGFyYW1ldGVyc6F4H2NvbS5hbnRocm9waWMub3JpZ2luLWNvbmZpZGVuY2VndW5rbm93bmtkZXNjcmlwdGlvbnhmQ2xhdWRlIHByb3ZpZGVkIHRoaXMgZmlsZSBhdCB0aGUgcmVxdWVzdCBvZiBhIHVzZXIgYW5kIG1heSBoYXZlIGNyZWF0ZWQgb3IgbW9kaWZpZWQgdGhlIGZpbGUgY29udGVudHMubXNvZnR3YXJlQWdlbnShZG5hbWVmQ2xhdWRlcmFsbEFjdGlvbnNJbmNsdWRlZPUAAADIanVtYgAAAEBqdW1kY2JvcgARABCAAACqADibcRNjMnBhLmhhc2guZGF0YQAAAAAYYzJzaGKzlCh5j65OJy0a+N8eHG4AAACAY2JvcqVjYWxnZnNoYTI1NmNwYWRMAAAAAAAAAAAAAAAAZGhhc2hYIGhjRCyXp+BM2Gy5eRJTqNiUTroNgwYYWfRPgvYqAZ0aZG5hbWVuanVtYmYgbWFuaWZlc3RqZXhjbHVzaW9uc4GiZXN0YXJ0GQGEZmxlbmd0aBkeBAAAAj5qdW1iAAAAJ2p1bWRjMmNsABEAEIAAAKoAOJtxA2MycGEuY2xhaW0udjIAAAACD2Nib3KlY2FsZ2ZzaGEyNTZpc2lnbmF0dXJleE1zZWxmI2p1bWJmPS9jMnBhL3VybjpjMnBhOjhkZjlhYTgwLWY2ZWEtNDA1Ni05ZjQzLWU0MWIxMGFiYzVlOC9jMnBhLnNpZ25hdHVyZWppbnN0YW5jZUlEeCx4bXA6aWlkOjRjY2M3ZGZmLTliNDAtNDFiNS04MTYxLWU0NWI0OTJlZTZiNHJjcmVhdGVkX2Fzc2VydGlvbnODomN1cmx4LXNlbGYjanVtYmY9YzJwYS5hc3NlcnRpb25zL2MycGEuaW5ncmVkaWVudC52M2RoYXNoWCCmzg5dHZp7IRe/nOkZCDvbVqpyii3i6ayVd+3jzKubNaJjdXJseCpzZWxmI2p1bWJmPWMycGEuYXNzZXJ0aW9ucy9jMnBhLmFjdGlvbnMudjJkaGFzaFggxCOaqNfMMZRAyHropnY9oWxqDmXKn4qGG5V9cSUOJjWiY3VybHgpc2VsZiNqdW1iZj1jMnBhLmFzc2VydGlvbnMvYzJwYS5oYXNoLmRhdGFkaGFzaFgg1EZUqELcAnwUa/viUO6alUL+ALQjbL0ULg73d7wi7B50Y2xhaW1fZ2VuZXJhdG9yX2luZm+jZG5hbWVvQW50aHJvcGljIEZpbGVzZ3ZlcnNpb25lMS4wLjBrc3BlY1ZlcnNpb25lMi40LjAAABA4anVtYgAAAChqdW1kYzJjcwARABCAAACqADibcQNjMnBhLnNpZ25hdHVyZQAAABAIY2JvctKEWQISogEmGCFZAgowggIGMIIBjaADAgECAhRA5aAK7sI50L64g/oGQgU9Z1UTADAKBggqhkjOPQQDAzBJMRcwFQYDVQQKEw5BbnRocm9waWMsIFBCQzEuMCwGA1UEAxMlQW50aHJvcGljIENvbnRlbnQgQ3JlZGVudGlhbHMgUm9vdCBDQTAeFw0yNjA4MDcxODQzNTZaFw0yODA4MDYxOTQzNTZaMEQxFzAVBgNVBAoTDkFudGhyb3BpYywgUEJDMSkwJwYDVQQDEyBBbnRocm9waWMgQ2xhdWRlIENvbnRlbnQgU2lnbmluZzBZMBMGByqGSM49AgEGCCqGSM49AwEHA0IABJh6CmvLUBgFFNU0vUKlOVtE6djd17L5SuwX0LemFisBM3dkd/3cyjxFA3Qo5S46fX0/ihY0VZ7mfb9KF703t5OjWDBWMA4GA1UdDwEB/wQEAwIHgDAVBgNVHSUEDjAMBgorBgEEAYPoXgIBMAwGA1UdEwEB/wQCMAAwHwYDVR0jBBgwFoAUzlHiBIFOZFsj+OPEz5o+nMHXXMIwCgYIKoZIzj0EAwMDZwAwZAIwMXMdFJ4BetLLVY7ORuE9noqbbAZOZn/aArXyTwFAZfKrPzxF2vPoJNf1+UCdg1XGAjBwX1zd9WGqYkqmL5SFqw1QySjr1zJfpJM9+1rdDwSPLMOPOjKuiXjoU/pUUeG9RwmhY3BhZFkNngAAAAAAAAAAAAAAAAAAAAAAAAAAAAAAAAAAAAAAAAAAAAAAAAAAAAAAAAAAAAAAAAAAAAAAAAAAAAAAAAAAAAAAAAAAAAAAAAAAAAAAAAAAAAAAAAAAAAAAAAAAAAAAAAAAAAAAAAAAAAAAAAAAAAAAAAAAAAAAAAAAAAAAAAAAAAAAAAAAAAAAAAAAAAAAAAAAAAAAAAAAAAAAAAAAAAAAAAAAAAAAAAAAAAAAAAAAAAAAAAAAAAAAAAAAAAAAAAAAAAAAAAAAAAAAAAAAAAAAAAAAAAAAAAAAAAAAAAAAAAAAAAAAAAAAAAAAAAAAAAAAAAAAAAAAAAAAAAAAAAAAAAAAAAAAAAAAAAAAAAAAAAAAAAAAAAAAAAAAAAAAAAAAAAAAAAAAAAAAAAAAAAAAAAAAAAAAAAAAAAAAAAAAAAAAAAAAAAAAAAAAAAAAAAAAAAAAAAAAAAAAAAAAAAAAAAAAAAAAAAAAAAAAAAAAAAAAAAAAAAAAAAAAAAAAAAAAAAAAAAAAAAAAAAAAAAAAAAAAAAAAAAAAAAAAAAAAAAAAAAAAAAAAAAAAAAAAAAAAAAAAAAAAAAAAAAAAAAAAAAAAAAAAAAAAAAAAAAAAAAAAAAAAAAAAAAAAAAAAAAAAAAAAAAAAAAAAAAAAAAAAAAAAAAAAAAAAAAAAAAAAAAAAAAAAAAAAAAAAAAAAAAAAAAAAAAAAAAAAAAAAAAAAAAAAAAAAAAAAAAAAAAAAAAAAAAAAAAAAAAAAAAAAAAAAAAAAAAAAAAAAAAAAAAAAAAAAAAAAAAAAAAAAAAAAAAAAAAAAAAAAAAAAAAAAAAAAAAAAAAAAAAAAAAAAAAAAAAAAAAAAAAAAAAAAAAAAAAAAAAAAAAAAAAAAAAAAAAAAAAAAAAAAAAAAAAAAAAAAAAAAAAAAAAAAAAAAAAAAAAAAAAAAAAAAAAAAAAAAAAAAAAAAAAAAAAAAAAAAAAAAAAAAAAAAAAAAAAAAAAAAAAAAAAAAAAAAAAAAAAAAAAAAAAAAAAAAAAAAAAAAAAAAAAAAAAAAAAAAAAAAAAAAAAAAAAAAAAAAAAAAAAAAAAAAAAAAAAAAAAAAAAAAAAAAAAAAAAAAAAAAAAAAAAAAAAAAAAAAAAAAAAAAAAAAAAAAAAAAAAAAAAAAAAAAAAAAAAAAAAAAAAAAAAAAAAAAAAAAAAAAAAAAAAAAAAAAAAAAAAAAAAAAAAAAAAAAAAAAAAAAAAAAAAAAAAAAAAAAAAAAAAAAAAAAAAAAAAAAAAAAAAAAAAAAAAAAAAAAAAAAAAAAAAAAAAAAAAAAAAAAAAAAAAAAAAAAAAAAAAAAAAAAAAAAAAAAAAAAAAAAAAAAAAAAAAAAAAAAAAAAAAAAAAAAAAAAAAAAAAAAAAAAAAAAAAAAAAAAAAAAAAAAAAAAAAAAAAAAAAAAAAAAAAAAAAAAAAAAAAAAAAAAAAAAAAAAAAAAAAAAAAAAAAAAAAAAAAAAAAAAAAAAAAAAAAAAAAAAAAAAAAAAAAAAAAAAAAAAAAAAAAAAAAAAAAAAAAAAAAAAAAAAAAAAAAAAAAAAAAAAAAAAAAAAAAAAAAAAAAAAAAAAAAAAAAAAAAAAAAAAAAAAAAAAAAAAAAAAAAAAAAAAAAAAAAAAAAAAAAAAAAAAAAAAAAAAAAAAAAAAAAAAAAAAAAAAAAAAAAAAAAAAAAAAAAAAAAAAAAAAAAAAAAAAAAAAAAAAAAAAAAAAAAAAAAAAAAAAAAAAAAAAAAAAAAAAAAAAAAAAAAAAAAAAAAAAAAAAAAAAAAAAAAAAAAAAAAAAAAAAAAAAAAAAAAAAAAAAAAAAAAAAAAAAAAAAAAAAAAAAAAAAAAAAAAAAAAAAAAAAAAAAAAAAAAAAAAAAAAAAAAAAAAAAAAAAAAAAAAAAAAAAAAAAAAAAAAAAAAAAAAAAAAAAAAAAAAAAAAAAAAAAAAAAAAAAAAAAAAAAAAAAAAAAAAAAAAAAAAAAAAAAAAAAAAAAAAAAAAAAAAAAAAAAAAAAAAAAAAAAAAAAAAAAAAAAAAAAAAAAAAAAAAAAAAAAAAAAAAAAAAAAAAAAAAAAAAAAAAAAAAAAAAAAAAAAAAAAAAAAAAAAAAAAAAAAAAAAAAAAAAAAAAAAAAAAAAAAAAAAAAAAAAAAAAAAAAAAAAAAAAAAAAAAAAAAAAAAAAAAAAAAAAAAAAAAAAAAAAAAAAAAAAAAAAAAAAAAAAAAAAAAAAAAAAAAAAAAAAAAAAAAAAAAAAAAAAAAAAAAAAAAAAAAAAAAAAAAAAAAAAAAAAAAAAAAAAAAAAAAAAAAAAAAAAAAAAAAAAAAAAAAAAAAAAAAAAAAAAAAAAAAAAAAAAAAAAAAAAAAAAAAAAAAAAAAAAAAAAAAAAAAAAAAAAAAAAAAAAAAAAAAAAAAAAAAAAAAAAAAAAAAAAAAAAAAAAAAAAAAAAAAAAAAAAAAAAAAAAAAAAAAAAAAAAAAAAAAAAAAAAAAAAAAAAAAAAAAAAAAAAAAAAAAAAAAAAAAAAAAAAAAAAAAAAAAAAAAAAAAAAAAAAAAAAAAAAAAAAAAAAAAAAAAAAAAAAAAAAAAAAAAAAAAAAAAAAAAAAAAAAAAAAAAAAAAAAAAAAAAAAAAAAAAAAAAAAAAAAAAAAAAAAAAAAAAAAAAAAAAAAAAAAAAAAAAAAAAAAAAAAAAAAAAAAAAAAAAAAAAAAAAAAAAAAAAAAAAAAAAAAAAAAAAAAAAAAAAAAAAAAAAAAAAAAAAAAAAAAAAAAAAAAAAAAAAAAAAAAAAAAAAAAAAAAAAAAAAAAAAAAAAAAAAAAAAAAAAAAAAAAAAAAAAAAAAAAAAAAAAAAAAAAAAAAAAAAAAAAAAAAAAAAAAAAAAAAAAAAAAAAAAAAAAAAAAAAAAAAAAAAAAAAAAAAAAAAAAAAAAAAAAAAAAAAAAAAAAAAAAAAAAAAAAAAAAAAAAAAAAAAAAAAAAAAAAAAAAAAAAAAAAAAAAAAAAAAAAAAAAAAAAAAAAAAAAAAAAAAAAAAAAAAAAAAAAAAAAAAAAAAAAAAAAAAAAAAAAAAAAAAAAAAAAAAAAAAAAAAAAAAAAAAAAAAAAAAAAAAAAAAAAAAAAAAAAAAAAAAAAAAAAAAAAAAAAAAAAAAAAAAAAAAAAAAAAAAAAAAAAAAAAAAAAAAAAAAAAAAAAAAAAAAAAAAAAAAAAAAAAAAAAAAAAAAAAAAAAAAAAAAAAAAAAAAAAAAAAAAAAAAAAAAAAAAAAAAAAAAAAAAAAAAAAAAAAAAAAAAAAAAAAAAAAAAAAAAAAAAAAAAAAAAAAAAAAAAAAAAAAAAAAAAAAAAAAAAAAAAAAAAAAAAAAAAAAAAAAAAAAAAAAAAAAAAAAAAAAAAAAAAAAAAAAAAAAAAAAAAAAAAAAAAAAAAAAAAAAAAAAAAAAAAAAAAAAAAAAAAAAAAAAAAAAAAAAAAAAAAAAAAAAAAAAAAAAAAAAAAAAAAAAAAAAAAAAAAAAAAAAAAAAAAAAAAAAAAAAAAAAAAAAAAAAAAAAAAAAAAAAAAAAAAAAAAAAAAAAAAAAAAAAAAAAAAAAAAAAAAAAAAAAAAAAAAAAAAAAAAAAAAAAAAAAAAAAAAAAAAAAAAAAAAAAAAAAAAAAAAAAAAAAAAAAAAAAAAAAAAAAAAAAAAAAAAAAAAAAAAAAAAAAAAAAAAAAAAAAAAAAAAAAAAAAAAAAAAAAAAAAAAAAAAAAAAAAAAAAAAAAAAAAAAAAAAAAAAAAAAAAAAAAAAAAAAAAAAAAAAAAAAAAAAAAAAAAAAAAAAAAAAAAAAAAAAAAAAAAAAAAAAAAAAAAAAAAAAAAAAAAAAAAAAAAAAAAAAAAAAAAAAAAAAAAAAAAAAAAAAAAAAAAAAAAAAAAAAAAAAAAAAAAAAAAAAAAAAAAAAAAAAAAAAAAAAAAAAAAAAAAAAAAAAAAAAAAAAAAAAAAAAAAAAAAAAAAAAAAAAAAAAAAAAAAAAAAAAAAAAAAAAAAAAAAAAAAAAAAAAAAAAAAAAAAAAAAAAAAAAAAAAAAAAAAAAAAAAAAAAAAAAAAAAAAAAAAAAAAAAAAAAAAAAAAAAAAAAAAAAAAAAAAAAAAAAAAAAAAAAAAAAAAAAAAAAAAAAAAAAAAAAAAAAAAAAAAAAAAAAAAAAAAAAAAAAAAAAAAAAAAAAAAAAAAAAAAAAAAAAAAAAAAAAAAAAAAAAAAAAAAAAAAAAAAAAAAAAAAAAAAAAAAAAAAAAAAAAAAAAAAAAAAAAAAAAAAAAAAAAAAAAAAAAAAAAAAAAAAAAAAAAAAAAAAAAAAAAAAAAAAAAAAAAAAAAAAAAAAAAAAAAAAAAAAAAAAAAAAAAAAAAAAAAAAAAAAAAAAAAAAAAAAAAAAAAAAAAAAAAAAAAAAAAAAAAAAAAAAAAAAAAAAAAAAAAAAAAAAAAAAAAAAAAAAAAAAAAAAAAAAAAAAAAAAAAAAAAAAAAAAAAAAAAAAAAAAAAAAAAAAAAAAAAAAAAAAAAAAAAAAAAAAAAAAAAAAAAAAAAAAAAAAAAAAAAAAAAAAAAAAAAAAAAAAAAAAAAAAAAAAAAAAAAAAAAAAAAAAAAAAAAAAAAAAAAAAAAAAAAAAAAAAAPZYQO02EaioDkdFCfiyeQGdEX5MbNTmPsgPO6IBXaB05PtS3VSsPO1V0+R4IJyqcxbj0Rp/BdMRrGQ4Fam+3p6Rf4c=</c2pa:manifest></metadata>

  <defs>
    <linearGradient id="spaceGrad" x1="0%" y1="0%" x2="100%" y2="100%">
      <stop offset="0%" stop-color="#01030D"/><stop offset="50%" stop-color="#080A28"/><stop offset="100%" stop-color="#150B38"/>
    </linearGradient>
    <radialGradient id="nebV" cx="50%" cy="50%" r="50%"><stop offset="0%" stop-color="#7C3AED" stop-opacity=".40"/><stop offset="100%" stop-color="#7C3AED" stop-opacity="0"/></radialGradient>
    <radialGradient id="nebM" cx="50%" cy="50%" r="50%"><stop offset="0%" stop-color="#DB2777" stop-opacity=".25"/><stop offset="100%" stop-color="#DB2777" stop-opacity="0"/></radialGradient>
    <radialGradient id="nebT" cx="50%" cy="50%" r="50%"><stop offset="0%" stop-color="#06B6D4" stop-opacity=".26"/><stop offset="100%" stop-color="#06B6D4" stop-opacity="0"/></radialGradient>
    <radialGradient id="goldGlow" cx="50%" cy="50%" r="50%"><stop offset="50%" stop-color="#FBBF24" stop-opacity=".45"/><stop offset="100%" stop-color="#FBBF24" stop-opacity="0"/></radialGradient>
    <radialGradient id="goldGrad" cx="35%" cy="30%" r="80%">
      <stop offset="0%" stop-color="#FFF7C2"/><stop offset="40%" stop-color="#FBBF24"/><stop offset="100%" stop-color="#B45309"/>
    </radialGradient>
    <linearGradient id="trophyGrad" x1="0%" y1="0%" x2="100%" y2="100%">
      <stop offset="0%" stop-color="#FEF3C7"/><stop offset="45%" stop-color="#FBBF24"/><stop offset="100%" stop-color="#B45309"/>
    </linearGradient>
    <linearGradient id="neonBorder" x1="0%" y1="0%" x2="100%" y2="100%">
      <stop offset="0%" stop-color="#22D3EE"/><stop offset="45%" stop-color="#6366F1"/><stop offset="75%" stop-color="#C026D3"/><stop offset="100%" stop-color="#22D3EE"/>
    </linearGradient>
    <linearGradient id="titleGrad" gradientUnits="userSpaceOnUse" x1="150" y1="0" x2="1050" y2="0">
      <stop offset="0%" stop-color="#FFFFFF"/><stop offset="55%" stop-color="#A5F3FC"/><stop offset="100%" stop-color="#C4B5FD"/>
    </linearGradient>
    <linearGradient id="shootGrad" gradientUnits="userSpaceOnUse" x1="-100" y1="0" x2="0" y2="0">
      <stop offset="0%" stop-color="#FFFFFF" stop-opacity="0"/><stop offset="100%" stop-color="#FFFFFF" stop-opacity=".95"/>
    </linearGradient>
    <filter id="glow" x="-150%" y="-150%" width="400%" height="400%">
      <feGaussianBlur stdDeviation="3" result="b"/><feMerge><feMergeNode in="b"/><feMergeNode in="SourceGraphic"/></feMerge>
    </filter>
    <clipPath id="canvasClip"><rect width="1200" height="76" rx="26"/></clipPath>
  </defs>
  <g clip-path="url(#canvasClip)">
    <rect width="1200" height="76" fill="url(#spaceGrad)"/>
    <circle cx="144" cy="15" r="68" fill="url(#nebV)"><animate attributeName="opacity" values=".7;1;.7" dur="14s" repeatCount="indefinite"/></circle>
    <circle cx="1056" cy="65" r="65" fill="url(#nebM)"><animate attributeName="opacity" values="1;.6;1" dur="17s" repeatCount="indefinite"/></circle>
    <circle cx="660" cy="76" r="72" fill="url(#nebT)"/>
    <g font-size="12" font-family="ui-monospace,SFMono-Regular,Menlo,Consolas,'Courier New',monospace"><text x="20 20 20 20 20 20 20 20 20 20 20 20 20 20 20 20 20 20 20" y="-140" dy="0 14 14 14 14 14 14 14 14 14 14 14 14 14 14 14 14 14 14" fill="#34D399" fill-opacity="0.14">={+$]=[#;}={+$]=[#;<animateTransform attributeName="transform" type="translate" values="0 0;0 140" dur="14.9s" repeatCount="indefinite"/></text><text x="140 140 140 140 140 140 140 140 140 140 140 140 140 140 140 140 140 140 140" y="-140" dy="0 14 14 14 14 14 14 14 14 14 14 14 14 14 14 14 14 14 14" fill="#34D399" fill-opacity="0.15">|#{}*{}{{1|#{}*{}{{<animateTransform attributeName="transform" type="translate" values="0 0;0 140" dur="16.4s" repeatCount="indefinite"/></text><text x="260 260 260 260 260 260 260 260 260 260 260 260 260 260 260 260 260 260 260" y="-140" dy="0 14 14 14 14 14 14 14 14 14 14 14 14 14 14 14 14 14 14" fill="#34D399" fill-opacity="0.15">=}+1#]1=]==}+1#]1=]<animateTransform attributeName="transform" type="translate" values="0 0;0 140" dur="18.0s" repeatCount="indefinite"/></text><text x="380 380 380 380 380 380 380 380 380 380 380 380 380 380 380 380 380 380 380" y="-140" dy="0 14 14 14 14 14 14 14 14 14 14 14 14 14 14 14 14 14 14" fill="#34D399" fill-opacity="0.09">[0|[[*|+=}[0|[[*|+=<animateTransform attributeName="transform" type="translate" values="0 0;0 140" dur="19.6s" repeatCount="indefinite"/></text><text x="500 500 500 500 500 500 500 500 500 500 500 500 500 500 500 500 500 500 500" y="-140" dy="0 14 14 14 14 14 14 14 14 14 14 14 14 14 14 14 14 14 14" fill="#34D399" fill-opacity="0.08">$/]}=/}}}0$/]}=/}}}<animateTransform attributeName="transform" type="translate" values="0 0;0 140" dur="15.2s" repeatCount="indefinite"/></text><text x="620 620 620 620 620 620 620 620 620 620 620 620 620 620 620 620 620 620 620" y="-140" dy="0 14 14 14 14 14 14 14 14 14 14 14 14 14 14 14 14 14 14" fill="#34D399" fill-opacity="0.10">]$[0+|]|$|]$[0+|]|$<animateTransform attributeName="transform" type="translate" values="0 0;0 140" dur="10.8s" repeatCount="indefinite"/></text><text x="740 740 740 740 740 740 740 740 740 740 740 740 740 740 740 740 740 740 740" y="-140" dy="0 14 14 14 14 14 14 14 14 14 14 14 14 14 14 14 14 14 14" fill="#34D399" fill-opacity="0.12">|0${+]]#++|0${+]]#+<animateTransform attributeName="transform" type="translate" values="0 0;0 140" dur="10.7s" repeatCount="indefinite"/></text><text x="860 860 860 860 860 860 860 860 860 860 860 860 860 860 860 860 860 860 860" y="-140" dy="0 14 14 14 14 14 14 14 14 14 14 14 14 14 14 14 14 14 14" fill="#34D399" fill-opacity="0.12">|+#+{#{+1]|+#+{#{+1<animateTransform attributeName="transform" type="translate" values="0 0;0 140" dur="16.0s" repeatCount="indefinite"/></text><text x="980 980 980 980 980 980 980 980 980 980 980 980 980 980 980 980 980 980 980" y="-140" dy="0 14 14 14 14 14 14 14 14 14 14 14 14 14 14 14 14 14 14" fill="#34D399" fill-opacity="0.09">#*}*|0{=*1#*}*|0{=*<animateTransform attributeName="transform" type="translate" values="0 0;0 140" dur="16.2s" repeatCount="indefinite"/></text><text x="1100 1100 1100 1100 1100 1100 1100 1100 1100 1100 1100 1100 1100 1100 1100 1100 1100 1100 1100" y="-140" dy="0 14 14 14 14 14 14 14 14 14 14 14 14 14 14 14 14 14 14" fill="#34D399" fill-opacity="0.10">1/*/#*0}{/1/*/#*0}{<animateTransform attributeName="transform" type="translate" values="0 0;0 140" dur="13.8s" repeatCount="indefinite"/></text></g>
    <g><circle cx="40" cy="36" r="0.5" fill="#FDE68A" opacity="0.51"/><circle cx="410" cy="18" r="0.7" fill="#DDD6FE" opacity="0.80"/><circle cx="233" cy="29" r="1.2" fill="#BAE6FD" opacity="0.53"/><circle cx="909" cy="16" r="0.5" fill="#FDE68A" opacity="0.66"/><circle cx="740" cy="5" r="1.2" fill="#FDE68A" opacity="0.30"/><circle cx="599" cy="46" r="1.2" fill="#DDD6FE" opacity="0.56"/><circle cx="379" cy="57" r="1.2" fill="#FFFFFF" opacity="0.33"/><circle cx="707" cy="75" r="0.9" fill="#FFFFFF" opacity="0.34"/><circle cx="137" cy="2" r="0.5" fill="#FDE68A" opacity="0.71"/><circle cx="1067" cy="75" r="0.9" fill="#FFFFFF" opacity="0.41"/><circle cx="317" cy="2" r="0.9" fill="#DDD6FE" opacity="0.68"/><circle cx="311" cy="54" r="1.2" fill="#FFFFFF" opacity="0.84"/><circle cx="664" cy="22" r="1.2" fill="#DDD6FE" opacity="0.67"/><circle cx="34" cy="10" r="1.2" fill="#FFFFFF" opacity="0.81"/><circle cx="217" cy="21" r="0.9" fill="#DDD6FE" opacity="0.72"/><circle cx="912" cy="41" r="0.7" fill="#FDE68A" opacity="0.29"/><circle cx="840" cy="74" r="0.5" fill="#FDE68A" opacity="0.77"/><circle cx="1070" cy="7" r="0.9" fill="#FFFFFF" opacity="0.75"/><circle cx="47" cy="66" r="0.9" fill="#DDD6FE" opacity="0.47"/><circle cx="944" cy="40" r="0.5" fill="#BAE6FD" opacity="0.37"/><circle cx="438" cy="17" r="0.5" fill="#FDE68A" opacity="0.35"/><circle cx="927" cy="72" r="0.5" fill="#FFFFFF" opacity="0.47"/><circle cx="133" cy="2" r="0.9" fill="#BAE6FD" opacity="0.83"/><circle cx="163" cy="60" r="0.9" fill="#FDE68A" opacity="0.39"/><circle cx="250" cy="2" r="1.2" fill="#DDD6FE" opacity="0.72"/><circle cx="85" cy="37" r="0.7" fill="#FFFFFF" opacity="0.57"/><circle cx="170" cy="55" r="0.5" fill="#BAE6FD" opacity="0.43"/><circle cx="1071" cy="22" r="0.7" fill="#FDE68A" opacity="0.67"/><circle cx="219" cy="73" r="0.9" fill="#BAE6FD" opacity="0.73"/><circle cx="462" cy="35" r="0.9" fill="#BAE6FD" opacity="0.35"/><circle cx="47" cy="68" r="0.7" fill="#DDD6FE" opacity="0.56"/><circle cx="53" cy="14" r="0.7" fill="#FFFFFF" opacity="0.48"/><circle cx="46" cy="9" r="0.5" fill="#FDE68A" opacity="0.82"/><circle cx="1051" cy="5" r="1.2" fill="#DDD6FE" opacity="0.58"/><circle cx="126" cy="72" r="1.2" fill="#FFFFFF" opacity="0.73"/><circle cx="350" cy="43" r="0.7" fill="#BAE6FD" opacity="0.38"/><circle cx="1022" cy="21" r="1.2" fill="#DDD6FE" opacity="0.78"/><circle cx="379" cy="21" r="0.7" fill="#FDE68A" opacity="0.67"/><circle cx="572" cy="15" r="0.5" fill="#BAE6FD" opacity="0.73"/><circle cx="315" cy="4" r="0.5" fill="#DDD6FE" opacity="0.73"/><circle cx="396" cy="28" r="0.9" fill="#DDD6FE" opacity="0.62"/><circle cx="681" cy="4" r="0.5" fill="#FDE68A" opacity="0.35"/><circle cx="1198" cy="22" r="1.2" fill="#FDE68A" opacity="0.52"/><circle cx="705" cy="63" r="0.7" fill="#BAE6FD" opacity="0.36"/><circle cx="904" cy="67" r="0.7" fill="#FDE68A" opacity="0.44"/><circle cx="1012" cy="21" r="1.2" fill="#BAE6FD" opacity="0.26"/><circle cx="827" cy="18" r="0.9" fill="#FFFFFF" opacity="0.33"/><circle cx="819" cy="43" r="0.9" fill="#DDD6FE" opacity="0.26"/><circle cx="52" cy="39" r="0.9" fill="#FFFFFF" opacity="0.85"/><circle cx="213" cy="41" r="0.9" fill="#BAE6FD" opacity="0.45"/><circle cx="1097" cy="26" r="0.7" fill="#FDE68A" opacity="0.82"/><circle cx="804" cy="6" r="1.2" fill="#BAE6FD" opacity="0.35"/><circle cx="824" cy="71" r="0.7" fill="#FDE68A" opacity="0.43"/><circle cx="705" cy="66" r="1.2" fill="#FDE68A" opacity="0.49"/><circle cx="868" cy="14" r="0.9" fill="#BAE6FD" opacity="0.39"/><circle cx="247" cy="66" r="0.9" fill="#FFFFFF" opacity="0.69"/><circle cx="58" cy="70" r="1.2" fill="#FFFFFF" opacity="0.78"/><circle cx="940" cy="65" r="0.5" fill="#FDE68A" opacity="0.48"/><circle cx="923" cy="58" r="0.5" fill="#FFFFFF" opacity="0.44"/><circle cx="1099" cy="22" r="0.5" fill="#FDE68A" opacity="0.77"/><circle cx="984" cy="34" r="0.7" fill="#BAE6FD" opacity="0.38"/><circle cx="888" cy="9" r="0.9" fill="#FDE68A" opacity="0.85"/><circle cx="666" cy="26" r="0.7" fill="#FFFFFF" opacity="0.79"/><circle cx="1049" cy="38" r="0.7" fill="#BAE6FD" opacity="0.64"/><circle cx="13" cy="59" r="0.9" fill="#DDD6FE" opacity="0.59"/><circle cx="396" cy="25" r="1.2" fill="#BAE6FD" opacity="0.75"/><circle cx="378" cy="47" r="0.5" fill="#FDE68A" opacity="0.32"/><circle cx="1047" cy="43" r="1.2" fill="#FFFFFF" opacity="0.52"/><circle cx="167" cy="27" r="0.7" fill="#FDE68A" opacity="0.79"/><circle cx="884" cy="4" r="0.9" fill="#FFFFFF" opacity="0.81"/><circle cx="826" cy="29" r="1.2" fill="#FFFFFF" opacity="0.58"/><circle cx="646" cy="20" r="0.5" fill="#FFFFFF" opacity="0.79"/><circle cx="548" cy="30" r="0.7" fill="#FFFFFF" opacity="0.53"/><circle cx="312" cy="37" r="0.5" fill="#BAE6FD" opacity="0.26"/><circle cx="840" cy="19" r="0.7" fill="#BAE6FD" opacity="0.74"/><circle cx="581" cy="23" r="0.5" fill="#FFFFFF" opacity="0.84"/><circle cx="1115" cy="49" r="0.5" fill="#FFFFFF" opacity="0.53"/><circle cx="1151" cy="33" r="0.7" fill="#BAE6FD" opacity="0.34"/><circle cx="757" cy="22" r="1.2" fill="#FFFFFF" opacity="0.52"/><circle cx="489" cy="65" r="0.5" fill="#FFFFFF" opacity="0.45"/><circle cx="1056" cy="17" r="0.5" fill="#FDE68A" opacity="0.32"/><circle cx="414" cy="1" r="1.2" fill="#FFFFFF" opacity="0.38"/><circle cx="421" cy="54" r="0.5" fill="#FDE68A" opacity="0.26"/><circle cx="734" cy="37" r="1.2" fill="#FDE68A" opacity="0.84"/><circle cx="990" cy="34" r="0.9" fill="#FDE68A" opacity="0.80"/><circle cx="13" cy="45" r="0.9" fill="#FFFFFF" opacity="0.47"/><circle cx="622" cy="23" r="0.9" fill="#DDD6FE" opacity="0.69"/><circle cx="1083" cy="38" r="0.9" fill="#FFFFFF" opacity="0.62"/><circle cx="831" cy="60" r="0.7" fill="#BAE6FD" opacity="0.45"/><circle cx="737" cy="24" r="1.2" fill="#FFFFFF" opacity="0.79"/><circle cx="1020" cy="12" r="0.9" fill="#FDE68A" opacity="0.75"/><circle cx="1180" cy="8" r="0.5" fill="#DDD6FE" opacity="0.65"/><circle cx="1186" cy="2" r="0.5" fill="#DDD6FE" opacity="0.54"/><circle cx="171" cy="39" r="1.2" fill="#BAE6FD" opacity="0.73"/><circle cx="401" cy="39" r="0.9" fill="#BAE6FD" opacity="0.84"/><circle cx="1068" cy="4" r="1.2" fill="#FFFFFF" opacity="0.34"/><circle cx="901" cy="6" r="0.9" fill="#DDD6FE" opacity="0.64"/><circle cx="1134" cy="66" r="0.5" fill="#BAE6FD" opacity="0.32"/><circle cx="98" cy="12" r="1.2" fill="#BAE6FD" opacity="0.48"/><circle cx="874" cy="61" r="0.7" fill="#FDE68A" opacity="0.72"/><circle cx="41" cy="37" r="1.2" fill="#BAE6FD" opacity="0.29"/><circle cx="1145" cy="6" r="0.7" fill="#FDE68A" opacity="0.28"/><circle cx="1036" cy="60" r="0.5" fill="#DDD6FE" opacity="0.32"/><circle cx="1038" cy="34" r="0.7" fill="#FFFFFF" opacity="0.61"/><circle cx="1087" cy="12" r="0.9" fill="#DDD6FE" opacity="0.30"/><circle cx="356" cy="39" r="0.7" fill="#BAE6FD" opacity="0.48"/><circle cx="689" cy="45" r="0.5" fill="#FDE68A" opacity="0.31"/><circle cx="938" cy="60" r="0.5" fill="#FFFFFF" opacity="0.68"/><circle cx="169" cy="9" r="0.5" fill="#DDD6FE" opacity="0.40"/><circle cx="750" cy="41" r="1.2" fill="#BAE6FD" opacity="0.37"/><circle cx="296" cy="44" r="0.9" fill="#BAE6FD" opacity="0.66"/><circle cx="53" cy="36" r="0.9" fill="#FDE68A" opacity="0.29"/><circle cx="258" cy="73" r="0.9" fill="#BAE6FD" opacity="0.48"/><circle cx="395" cy="36" r="1.2" fill="#FFFFFF" opacity="0.76"/><circle cx="1049" cy="56" r="1.2" fill="#FFFFFF" opacity="0.82"/><circle cx="170" cy="40" r="0.7" fill="#FFFFFF" opacity="0.32"/><circle cx="356" cy="52" r="1.2" fill="#DDD6FE" opacity="0.34"/><circle cx="387" cy="30" r="0.9" fill="#BAE6FD" opacity="0.70"/><circle cx="466" cy="2" r="0.5" fill="#BAE6FD" opacity="0.42"/><circle cx="399" cy="34" r="0.7" fill="#DDD6FE" opacity="0.62"/></g><g><circle cx="28" cy="27" r="1.3" fill="#FFFFFF"><animate attributeName="opacity" values=".15;1;.15" dur="3.7s" begin="-3.6s" repeatCount="indefinite"/></circle><circle cx="1112" cy="66" r="1.7" fill="#FFFFFF"><animate attributeName="opacity" values=".15;1;.15" dur="5.3s" begin="-3.2s" repeatCount="indefinite"/></circle><circle cx="265" cy="39" r="1.3" fill="#FFFFFF"><animate attributeName="opacity" values=".15;1;.15" dur="4.8s" begin="-4.4s" repeatCount="indefinite"/></circle><circle cx="1200" cy="18" r="1.3" fill="#FFFFFF"><animate attributeName="opacity" values=".15;1;.15" dur="3.2s" begin="-2.6s" repeatCount="indefinite"/></circle><circle cx="280" cy="75" r="1.3" fill="#FFFFFF"><animate attributeName="opacity" values=".15;1;.15" dur="4.6s" begin="-4.0s" repeatCount="indefinite"/></circle><circle cx="612" cy="64" r="1.3" fill="#FFFFFF"><animate attributeName="opacity" values=".15;1;.15" dur="3.0s" begin="-0.3s" repeatCount="indefinite"/></circle><circle cx="1005" cy="76" r="1.7" fill="#FFFFFF"><animate attributeName="opacity" values=".15;1;.15" dur="3.9s" begin="-3.2s" repeatCount="indefinite"/></circle><circle cx="691" cy="39" r="1.7" fill="#FFFFFF"><animate attributeName="opacity" values=".15;1;.15" dur="4.3s" begin="-1.5s" repeatCount="indefinite"/></circle><circle cx="1037" cy="39" r="1.7" fill="#FFFFFF"><animate attributeName="opacity" values=".15;1;.15" dur="5.1s" begin="-3.8s" repeatCount="indefinite"/></circle><circle cx="520" cy="54" r="0.9" fill="#FFFFFF"><animate attributeName="opacity" values=".15;1;.15" dur="2.9s" begin="-2.5s" repeatCount="indefinite"/></circle><circle cx="685" cy="45" r="0.9" fill="#FFFFFF"><animate attributeName="opacity" values=".15;1;.15" dur="5.1s" begin="-1.8s" repeatCount="indefinite"/></circle><circle cx="638" cy="24" r="1.7" fill="#FFFFFF"><animate attributeName="opacity" values=".15;1;.15" dur="2.7s" begin="-2.5s" repeatCount="indefinite"/></circle><circle cx="700" cy="5" r="1.7" fill="#FFFFFF"><animate attributeName="opacity" values=".15;1;.15" dur="4.6s" begin="-2.9s" repeatCount="indefinite"/></circle><circle cx="1132" cy="12" r="1.3" fill="#FFFFFF"><animate attributeName="opacity" values=".15;1;.15" dur="3.0s" begin="-1.6s" repeatCount="indefinite"/></circle><circle cx="1181" cy="15" r="1.7" fill="#FFFFFF"><animate attributeName="opacity" values=".15;1;.15" dur="2.8s" begin="-0.0s" repeatCount="indefinite"/></circle><circle cx="146" cy="16" r="1.7" fill="#FFFFFF"><animate attributeName="opacity" values=".15;1;.15" dur="5.1s" begin="-4.5s" repeatCount="indefinite"/></circle><circle cx="771" cy="12" r="1.7" fill="#FFFFFF"><animate attributeName="opacity" values=".15;1;.15" dur="4.8s" begin="-1.6s" repeatCount="indefinite"/></circle><circle cx="31" cy="24" r="1.7" fill="#FFFFFF"><animate attributeName="opacity" values=".15;1;.15" dur="4.6s" begin="-4.4s" repeatCount="indefinite"/></circle><circle cx="852" cy="0" r="1.7" fill="#FFFFFF"><animate attributeName="opacity" values=".15;1;.15" dur="2.3s" begin="-0.3s" repeatCount="indefinite"/></circle><circle cx="945" cy="13" r="1.3" fill="#FFFFFF"><animate attributeName="opacity" values=".15;1;.15" dur="3.8s" begin="-2.9s" repeatCount="indefinite"/></circle><circle cx="139" cy="48" r="1.7" fill="#FFFFFF"><animate attributeName="opacity" values=".15;1;.15" dur="3.8s" begin="-0.7s" repeatCount="indefinite"/></circle><circle cx="791" cy="51" r="1.7" fill="#FFFFFF"><animate attributeName="opacity" values=".15;1;.15" dur="5.5s" begin="-0.2s" repeatCount="indefinite"/></circle><circle cx="233" cy="14" r="0.9" fill="#FFFFFF"><animate attributeName="opacity" values=".15;1;.15" dur="2.7s" begin="-0.7s" repeatCount="indefinite"/></circle><circle cx="1199" cy="6" r="0.9" fill="#FFFFFF"><animate attributeName="opacity" values=".15;1;.15" dur="3.0s" begin="-1.7s" repeatCount="indefinite"/></circle><circle cx="1040" cy="56" r="1.3" fill="#FFFFFF"><animate attributeName="opacity" values=".15;1;.15" dur="3.3s" begin="-1.0s" repeatCount="indefinite"/></circle><circle cx="1179" cy="13" r="1.3" fill="#FFFFFF"><animate attributeName="opacity" values=".15;1;.15" dur="2.6s" begin="-0.1s" repeatCount="indefinite"/></circle></g>
    <g transform="translate(417,20)"><g opacity="0"><g transform="rotate(28)"><line x1="-90" y1="0" x2="0" y2="0" stroke="url(#shootGrad)" stroke-width="1.5"/><circle r="1.7" fill="#fff"/></g><animateMotion path="M0 0 L420 220" dur="10s" begin="3s" keyPoints="0;1;1" keyTimes="0;.25;1" calcMode="linear" repeatCount="indefinite"/><animate attributeName="opacity" values="0;1;0;0" keyTimes="0;.04;.25;1" dur="10s" begin="3s" repeatCount="indefinite"/></g></g>
  </g>
<g><animateTransform attributeName="transform" type="translate" values="0 0;-1643 0" dur="30s" repeatCount="indefinite"/><g><rect x="0" y="20" width="400" height="38" rx="19" fill="#0B1B3A" fill-opacity=".8" stroke="#FBBF24" stroke-opacity=".55"/><circle cx="22" cy="39" r="12" fill="#FBBF24" fill-opacity=".18"/><g transform="translate(14,31) scale(0.6667)" fill="none" stroke="#FBBF24" stroke-width="2" stroke-linecap="round" stroke-linejoin="round"><path d="m15.477 12.89 1.515 8.526a.5.5 0 0 1-.81.47l-3.58-2.687a1 1 0 0 0-1.197 0l-3.586 2.686a.5.5 0 0 1-.81-.469l1.514-8.526"/><circle cx="12" cy="8" r="6"/></g><text x="44" y="44" font-size="13.5" font-weight="700" fill="#F8FAFC">Olympiad Gold Medalist ×2 (Class 9 &amp; 10)</text><rect x="418" y="20" width="319" height="38" rx="19" fill="#0B1B3A" fill-opacity=".8" stroke="#F59E0B" stroke-opacity=".55"/><circle cx="440" cy="39" r="12" fill="#F59E0B" fill-opacity=".18"/><g transform="translate(432,31) scale(0.6667)" fill="none" stroke="#F59E0B" stroke-width="2" stroke-linecap="round" stroke-linejoin="round"><path d="M6 9H4.5a2.5 2.5 0 0 1 0-5H6M18 9h1.5a2.5 2.5 0 0 0 0-5H18M4 22h16M10 14.66V17c0 .55-.47.98-.97 1.21C7.85 18.75 7 20.24 7 22M14 14.66V17c0 .55.47.98.97 1.21C16.15 18.75 17 20.24 17 22M18 2H6v7a6 6 0 0 0 12 0V2Z"/></g><text x="462" y="44" font-size="13.5" font-weight="700" fill="#F8FAFC">Code-O-Lympics 2026 • 1st Prize</text><rect x="755" y="20" width="198" height="38" rx="19" fill="#0B1B3A" fill-opacity=".8" stroke="#3B82F6" stroke-opacity=".55"/><circle cx="777" cy="39" r="12" fill="#3B82F6" fill-opacity=".18"/><g transform="translate(769,31) scale(0.6667)" fill="none" stroke="#3B82F6" stroke-width="2" stroke-linecap="round" stroke-linejoin="round"><path d="M4 14a1 1 0 0 1-.78-1.63l9.9-10.2a.5.5 0 0 1 .86.46l-1.92 6.02A1 1 0 0 0 13 10h7a1 1 0 0 1 .78 1.63l-9.9 10.2a.5.5 0 0 1-.86-.46l1.92-6.02A1 1 0 0 0 11 14z"/></g><text x="799" y="44" font-size="13.5" font-weight="700" fill="#F8FAFC">Hackathon Winner</text><rect x="971" y="20" width="190" height="38" rx="19" fill="#0B1B3A" fill-opacity=".8" stroke="#38BDF8" stroke-opacity=".55"/><circle cx="993" cy="39" r="12" fill="#38BDF8" fill-opacity=".18"/><g transform="translate(985,31) scale(0.6667)" fill="none" stroke="#38BDF8" stroke-width="2" stroke-linecap="round" stroke-linejoin="round"><path d="M17.5 19H9a7 7 0 1 1 6.71-9h1.79a4.5 4.5 0 1 1 0 9Z"/></g><text x="1015" y="44" font-size="13.5" font-weight="700" fill="#F8FAFC">Azure Certified</text><rect x="1179" y="20" width="222" height="38" rx="19" fill="#0B1B3A" fill-opacity=".8" stroke="#F87171" stroke-opacity=".55"/><circle cx="1201" cy="39" r="12" fill="#F87171" fill-opacity=".18"/><g transform="translate(1193,31) scale(0.6667)" fill="none" stroke="#F87171" stroke-width="2" stroke-linecap="round" stroke-linejoin="round"><rect x="4" y="4" width="16" height="16" rx="2"/><rect x="9" y="9" width="6" height="6"/><path d="M9 1v3M15 1v3M9 20v3M15 20v3M20 9h3M20 14h3M1 9h3M1 14h3"/></g><text x="1223" y="44" font-size="13.5" font-weight="700" fill="#F8FAFC">Oracle AI Certified</text><rect x="1419" y="20" width="206" height="38" rx="19" fill="#0B1B3A" fill-opacity=".8" stroke="#22C55E" stroke-opacity=".55"/><circle cx="1441" cy="39" r="12" fill="#22C55E" fill-opacity=".18"/><g transform="translate(1433,31) scale(0.6667)" fill="none" stroke="#22C55E" stroke-width="2" stroke-linecap="round" stroke-linejoin="round"><path d="M16 18l6-6-6-6M8 6l-6 6 6 6"/></g><text x="1463" y="44" font-size="13.5" font-weight="700" fill="#F8FAFC">500+ DSA Problems</text></g><g transform="translate(1643,0)"><rect x="0" y="20" width="400" height="38" rx="19" fill="#0B1B3A" fill-opacity=".8" stroke="#FBBF24" stroke-opacity=".55"/><circle cx="22" cy="39" r="12" fill="#FBBF24" fill-opacity=".18"/><g transform="translate(14,31) scale(0.6667)" fill="none" stroke="#FBBF24" stroke-width="2" stroke-linecap="round" stroke-linejoin="round"><path d="m15.477 12.89 1.515 8.526a.5.5 0 0 1-.81.47l-3.58-2.687a1 1 0 0 0-1.197 0l-3.586 2.686a.5.5 0 0 1-.81-.469l1.514-8.526"/><circle cx="12" cy="8" r="6"/></g><text x="44" y="44" font-size="13.5" font-weight="700" fill="#F8FAFC">Olympiad Gold Medalist ×2 (Class 9 &amp; 10)</text><rect x="418" y="20" width="319" height="38" rx="19" fill="#0B1B3A" fill-opacity=".8" stroke="#F59E0B" stroke-opacity=".55"/><circle cx="440" cy="39" r="12" fill="#F59E0B" fill-opacity=".18"/><g transform="translate(432,31) scale(0.6667)" fill="none" stroke="#F59E0B" stroke-width="2" stroke-linecap="round" stroke-linejoin="round"><path d="M6 9H4.5a2.5 2.5 0 0 1 0-5H6M18 9h1.5a2.5 2.5 0 0 0 0-5H18M4 22h16M10 14.66V17c0 .55-.47.98-.97 1.21C7.85 18.75 7 20.24 7 22M14 14.66V17c0 .55.47.98.97 1.21C16.15 18.75 17 20.24 17 22M18 2H6v7a6 6 0 0 0 12 0V2Z"/></g><text x="462" y="44" font-size="13.5" font-weight="700" fill="#F8FAFC">Code-O-Lympics 2026 • 1st Prize</text><rect x="755" y="20" width="198" height="38" rx="19" fill="#0B1B3A" fill-opacity=".8" stroke="#3B82F6" stroke-opacity=".55"/><circle cx="777" cy="39" r="12" fill="#3B82F6" fill-opacity=".18"/><g transform="translate(769,31) scale(0.6667)" fill="none" stroke="#3B82F6" stroke-width="2" stroke-linecap="round" stroke-linejoin="round"><path d="M4 14a1 1 0 0 1-.78-1.63l9.9-10.2a.5.5 0 0 1 .86.46l-1.92 6.02A1 1 0 0 0 13 10h7a1 1 0 0 1 .78 1.63l-9.9 10.2a.5.5 0 0 1-.86-.46l1.92-6.02A1 1 0 0 0 11 14z"/></g><text x="799" y="44" font-size="13.5" font-weight="700" fill="#F8FAFC">Hackathon Winner</text><rect x="971" y="20" width="190" height="38" rx="19" fill="#0B1B3A" fill-opacity=".8" stroke="#38BDF8" stroke-opacity=".55"/><circle cx="993" cy="39" r="12" fill="#38BDF8" fill-opacity=".18"/><g transform="translate(985,31) scale(0.6667)" fill="none" stroke="#38BDF8" stroke-width="2" stroke-linecap="round" stroke-linejoin="round"><path d="M17.5 19H9a7 7 0 1 1 6.71-9h1.79a4.5 4.5 0 1 1 0 9Z"/></g><text x="1015" y="44" font-size="13.5" font-weight="700" fill="#F8FAFC">Azure Certified</text><rect x="1179" y="20" width="222" height="38" rx="19" fill="#0B1B3A" fill-opacity=".8" stroke="#F87171" stroke-opacity=".55"/><circle cx="1201" cy="39" r="12" fill="#F87171" fill-opacity=".18"/><g transform="translate(1193,31) scale(0.6667)" fill="none" stroke="#F87171" stroke-width="2" stroke-linecap="round" stroke-linejoin="round"><rect x="4" y="4" width="16" height="16" rx="2"/><rect x="9" y="9" width="6" height="6"/><path d="M9 1v3M15 1v3M9 20v3M15 20v3M20 9h3M20 14h3M1 9h3M1 14h3"/></g><text x="1223" y="44" font-size="13.5" font-weight="700" fill="#F8FAFC">Oracle AI Certified</text><rect x="1419" y="20" width="206" height="38" rx="19" fill="#0B1B3A" fill-opacity=".8" stroke="#22C55E" stroke-opacity=".55"/><circle cx="1441" cy="39" r="12" fill="#22C55E" fill-opacity=".18"/><g transform="translate(1433,31) scale(0.6667)" fill="none" stroke="#22C55E" stroke-width="2" stroke-linecap="round" stroke-linejoin="round"><path d="M16 18l6-6-6-6M8 6l-6 6 6 6"/></g><text x="1463" y="44" font-size="13.5" font-weight="700" fill="#F8FAFC">500+ DSA Problems</text></g><g transform="translate(3286,0)"><rect x="0" y="20" width="400" height="38" rx="19" fill="#0B1B3A" fill-opacity=".8" stroke="#FBBF24" stroke-opacity=".55"/><circle cx="22" cy="39" r="12" fill="#FBBF24" fill-opacity=".18"/><g transform="translate(14,31) scale(0.6667)" fill="none" stroke="#FBBF24" stroke-width="2" stroke-linecap="round" stroke-linejoin="round"><path d="m15.477 12.89 1.515 8.526a.5.5 0 0 1-.81.47l-3.58-2.687a1 1 0 0 0-1.197 0l-3.586 2.686a.5.5 0 0 1-.81-.469l1.514-8.526"/><circle cx="12" cy="8" r="6"/></g><text x="44" y="44" font-size="13.5" font-weight="700" fill="#F8FAFC">Olympiad Gold Medalist ×2 (Class 9 &amp; 10)</text><rect x="418" y="20" width="319" height="38" rx="19" fill="#0B1B3A" fill-opacity=".8" stroke="#F59E0B" stroke-opacity=".55"/><circle cx="440" cy="39" r="12" fill="#F59E0B" fill-opacity=".18"/><g transform="translate(432,31) scale(0.6667)" fill="none" stroke="#F59E0B" stroke-width="2" stroke-linecap="round" stroke-linejoin="round"><path d="M6 9H4.5a2.5 2.5 0 0 1 0-5H6M18 9h1.5a2.5 2.5 0 0 0 0-5H18M4 22h16M10 14.66V17c0 .55-.47.98-.97 1.21C7.85 18.75 7 20.24 7 22M14 14.66V17c0 .55.47.98.97 1.21C16.15 18.75 17 20.24 17 22M18 2H6v7a6 6 0 0 0 12 0V2Z"/></g><text x="462" y="44" font-size="13.5" font-weight="700" fill="#F8FAFC">Code-O-Lympics 2026 • 1st Prize</text><rect x="755" y="20" width="198" height="38" rx="19" fill="#0B1B3A" fill-opacity=".8" stroke="#3B82F6" stroke-opacity=".55"/><circle cx="777" cy="39" r="12" fill="#3B82F6" fill-opacity=".18"/><g transform="translate(769,31) scale(0.6667)" fill="none" stroke="#3B82F6" stroke-width="2" stroke-linecap="round" stroke-linejoin="round"><path d="M4 14a1 1 0 0 1-.78-1.63l9.9-10.2a.5.5 0 0 1 .86.46l-1.92 6.02A1 1 0 0 0 13 10h7a1 1 0 0 1 .78 1.63l-9.9 10.2a.5.5 0 0 1-.86-.46l1.92-6.02A1 1 0 0 0 11 14z"/></g><text x="799" y="44" font-size="13.5" font-weight="700" fill="#F8FAFC">Hackathon Winner</text><rect x="971" y="20" width="190" height="38" rx="19" fill="#0B1B3A" fill-opacity=".8" stroke="#38BDF8" stroke-opacity=".55"/><circle cx="993" cy="39" r="12" fill="#38BDF8" fill-opacity=".18"/><g transform="translate(985,31) scale(0.6667)" fill="none" stroke="#38BDF8" stroke-width="2" stroke-linecap="round" stroke-linejoin="round"><path d="M17.5 19H9a7 7 0 1 1 6.71-9h1.79a4.5 4.5 0 1 1 0 9Z"/></g><text x="1015" y="44" font-size="13.5" font-weight="700" fill="#F8FAFC">Azure Certified</text><rect x="1179" y="20" width="222" height="38" rx="19" fill="#0B1B3A" fill-opacity=".8" stroke="#F87171" stroke-opacity=".55"/><circle cx="1201" cy="39" r="12" fill="#F87171" fill-opacity=".18"/><g transform="translate(1193,31) scale(0.6667)" fill="none" stroke="#F87171" stroke-width="2" stroke-linecap="round" stroke-linejoin="round"><rect x="4" y="4" width="16" height="16" rx="2"/><rect x="9" y="9" width="6" height="6"/><path d="M9 1v3M15 1v3M9 20v3M15 20v3M20 9h3M20 14h3M1 9h3M1 14h3"/></g><text x="1223" y="44" font-size="13.5" font-weight="700" fill="#F8FAFC">Oracle AI Certified</text><rect x="1419" y="20" width="206" height="38" rx="19" fill="#0B1B3A" fill-opacity=".8" stroke="#22C55E" stroke-opacity=".55"/><circle cx="1441" cy="39" r="12" fill="#22C55E" fill-opacity=".18"/><g transform="translate(1433,31) scale(0.6667)" fill="none" stroke="#22C55E" stroke-width="2" stroke-linecap="round" stroke-linejoin="round"><path d="M16 18l6-6-6-6M8 6l-6 6 6 6"/></g><text x="1463" y="44" font-size="13.5" font-weight="700" fill="#F8FAFC">500+ DSA Problems</text></g></g><defs><linearGradient id="fadeL" x1="0" x2="1"><stop offset="0" stop-color="#01030D"/><stop offset="1" stop-color="#01030D" stop-opacity="0"/></linearGradient><linearGradient id="fadeR" x1="1" x2="0"><stop offset="0" stop-color="#01030D"/><stop offset="1" stop-color="#01030D" stop-opacity="0"/></linearGradient></defs><rect x="0" y="0" width="90" height="76" fill="url(#fadeL)"/><rect x="1110" y="0" width="90" height="76" fill="url(#fadeR)"/>
  <rect x="4" y="4" width="1192" height="68" rx="22" fill="none" stroke="url(#neonBorder)" stroke-width="2" filter="url(#glow)"><animate attributeName="stroke-opacity" values=".55;1;.55" dur="5s" repeatCount="indefinite"/></rect>
</svg>